<svg version="1.1" id="Layer_1" xmlns="http://www.w3.org/2000/svg" xmlns:xlink="http://www.w3.org/1999/xlink" x="0px" y="0px"
	 width="100%" viewBox="0 0 273 110" enable-background="new 0 0 273 110" xml:space="preserve">
<path fill="#FFFFFF" opacity="1.000000" stroke="none" 
	d="
M180.000000,111.000000 
	C121.333351,111.000000 63.166615,110.961639 5.000278,111.097015 
	C1.575444,111.104980 0.884419,110.426437 0.900816,106.999580 
	C1.064294,72.833702 1.048202,38.666553 0.915600,4.500412 
	C0.904021,1.516746 1.517593,0.914771 4.500006,0.918161 
	C93.166534,1.018938 181.833221,1.018921 270.499756,0.918216 
	C273.481476,0.914830 274.095947,1.515815 274.084442,4.500157 
	C273.951996,38.832970 273.952057,73.166664 274.084381,107.499474 
	C274.095856,110.482788 273.484802,111.098869 270.499817,111.084976 
	C240.500397,110.945312 210.500076,111.000000 180.000000,111.000000 
z"/>
<path fill="#BCBCBC" opacity="1.000000" stroke="none" 
	d="
M179.166412,86.275955 
	C179.026306,86.575958 178.960587,86.504898 178.991623,86.467766 
	C179.255905,90.367783 176.838379,90.834999 173.373734,90.222198 
	C169.909882,88.395805 169.164612,85.642883 169.168716,82.460693 
	C169.187592,67.796005 169.183838,53.131271 169.174286,38.466568 
	C169.172455,35.653465 169.718521,33.186695 172.565933,31.798479 
	C175.186371,30.520914 177.216766,31.663359 178.696732,33.566601 
	C180.095978,35.366032 181.096893,34.045734 182.024765,33.453007 
	C188.179962,29.521061 193.930496,30.839342 199.022110,35.182583 
	C202.212418,37.903973 206.550613,39.613979 208.051178,44.469894 
	C209.794220,49.603970 208.669952,54.559822 208.988266,59.824776 
	C208.772491,67.680344 202.926178,70.878548 197.934723,74.652687 
	C196.637527,75.633537 195.176880,76.521713 193.255020,77.268669 
	C191.243027,78.270744 189.440720,77.890060 187.317230,78.023560 
	C186.771408,78.061386 186.602768,78.087128 186.192566,78.028427 
	C185.254227,77.143593 184.306015,76.745636 183.107849,76.167267 
	C182.461273,76.008957 182.075409,76.013878 181.401520,76.048775 
	C178.446182,79.000809 181.235428,82.919090 179.166412,86.275955 
z"/>
<path fill="#BCBCBC" opacity="1.000000" stroke="none" 
	d="
M122.395355,75.215172 
	C115.927963,72.353287 112.990463,66.055389 114.125885,58.028942 
	C114.985199,51.954296 119.971985,47.712952 127.200172,47.242851 
	C131.007797,46.995216 134.843994,47.188366 138.667297,47.180153 
	C140.374084,47.176487 142.149063,47.262917 142.033401,44.313427 
	C138.692932,42.159657 135.151062,43.301838 131.731430,43.015862 
	C129.599152,42.837547 127.410431,43.250343 124.942245,42.178345 
	C122.285980,40.398098 121.171509,38.290417 122.299927,35.613194 
	C123.377914,33.055622 125.745445,32.916172 128.158127,32.951714 
	C132.277084,33.012394 136.415665,32.730198 140.512634,33.037212 
	C145.266983,33.393494 149.505219,34.940235 151.059891,40.516129 
	C153.277512,43.158478 153.279099,45.866096 152.221146,49.147419 
	C152.350342,49.654774 152.464844,49.870724 152.164337,50.321568 
	C154.893173,57.041893 154.028015,64.021866 153.821808,70.896660 
	C153.732040,73.889626 151.639343,75.560425 148.206848,76.052971 
	C146.663040,75.703186 145.578568,75.298851 144.144012,74.845215 
	C136.805237,75.903847 129.807678,76.715698 122.395355,75.215172 
z"/>
<path fill="#BCBCBC" opacity="1.000000" stroke="none" 
	d="
M66.390717,75.215988 
	C65.834969,75.024010 65.659737,75.047112 65.227722,75.004166 
	C64.492950,74.285034 64.083519,73.560547 62.961391,73.169647 
	C61.027802,71.682190 59.252502,70.334442 59.131279,67.963867 
	C58.942120,64.264793 63.130440,61.746513 66.537956,63.943733 
	C72.268806,67.639084 78.419090,65.391922 84.355904,65.911407 
	C86.070694,66.061447 87.058464,64.893166 87.006256,62.675343 
	C86.080139,60.951424 84.440086,60.991249 82.861237,60.149769 
	C82.514816,60.034966 82.172325,60.037613 82.031555,59.940094 
	C79.513298,58.182091 76.702965,57.450531 73.778397,56.126480 
	C73.433212,56.029629 73.317703,56.175728 73.233818,56.135292 
	C72.911438,55.844349 72.658005,55.609989 72.217880,55.197605 
	C70.857010,54.929295 69.576157,55.266273 68.278534,54.062611 
	C67.255562,53.145592 66.331955,52.765614 65.174133,52.196758 
	C64.917610,52.044445 64.979408,52.008965 64.983192,52.044392 
	C64.794014,51.801830 64.569046,51.552753 64.119568,51.168579 
	C59.844296,48.003170 59.104652,44.005421 60.806911,39.518719 
	C62.529747,34.977772 65.962982,32.853832 70.875336,32.948807 
	C76.362885,33.054901 81.854439,33.022717 87.343391,32.966644 
	C92.126198,32.917782 95.657860,34.851913 97.892754,39.515747 
	C99.052940,44.789089 95.589363,45.074917 91.814423,45.226456 
	C90.735077,44.684727 90.046364,44.359192 89.092506,43.924198 
	C83.355057,42.366470 77.845512,42.806091 72.196243,43.789772 
	C77.006310,46.270016 82.028656,48.292824 86.872337,50.678406 
	C90.903030,52.663582 95.613625,54.015835 97.055717,59.535606 
	C100.544243,68.107788 92.310120,76.548004 85.005234,76.026031 
	C78.941818,75.592766 72.821083,76.571945 66.390717,75.215988 
z"/>
<path fill="#4F4F4F" opacity="1.000000" stroke="none" 
	d="
M66.183823,75.348869 
	C72.114738,75.023537 78.221077,75.150093 84.323372,75.043976 
	C93.096283,74.891441 97.789742,69.206444 96.826096,60.143608 
	C100.927299,67.459595 96.403061,75.972588 87.529037,76.638161 
	C80.508530,77.164711 73.330307,77.780693 66.183823,75.348869 
z"/>
<path fill="#4F4F4F" opacity="1.000000" stroke="none" 
	d="
M192.488220,76.801590 
	C199.132156,72.926964 205.556870,69.429436 208.097198,61.413868 
	C208.442810,60.681324 208.818359,60.535748 209.510529,60.818813 
	C208.790100,70.842957 201.113831,74.264923 193.349274,77.923798 
	C192.759659,77.673500 192.541168,77.454369 192.488220,76.801590 
z"/>
<path fill="#595959" opacity="1.000000" stroke="none" 
	d="
M147.999054,76.378990 
	C152.451813,74.142075 153.466278,70.463097 152.960739,65.745537 
	C152.449356,60.973419 152.398987,56.151897 152.066467,50.891212 
	C154.238998,49.471218 153.981339,51.238762 154.035751,52.423832 
	C154.316330,58.535004 154.601044,64.647591 154.743317,70.762955 
	C154.844269,75.101517 152.688660,77.195473 147.999054,76.378990 
z"/>
<path fill="#4F4F4F" opacity="1.000000" stroke="none" 
	d="
M122.194565,75.362488 
	C129.161163,74.583046 136.517975,76.610420 143.341385,72.969528 
	C143.360397,72.959381 143.759018,73.660690 143.887115,74.412796 
	C136.789429,78.465111 129.564484,77.022499 122.194565,75.362488 
z"/>
<path fill="#636363" opacity="1.000000" stroke="none" 
	d="
M72.516357,43.995552 
	C71.067764,43.784481 69.383133,42.468910 70.957764,42.357136 
	C76.844261,41.939278 82.891472,40.685413 88.768372,43.422829 
	C83.542046,43.843483 78.256714,43.872223 72.516357,43.995552 
z"/>
<path fill="#6D6D6D" opacity="1.000000" stroke="none" 
	d="
M124.781609,42.345600 
	C130.272369,42.370152 136.151657,40.565010 141.872589,43.488201 
	C136.346069,43.359825 130.540466,45.142231 124.781609,42.345600 
z"/>
<path fill="#6B6B6B" opacity="1.000000" stroke="none" 
	d="
M209.843018,60.589916 
	C209.392410,61.048771 209.041428,61.048447 208.427734,61.053246 
	C207.958725,55.810341 207.752441,50.562305 207.821350,45.067619 
	C211.788895,49.553188 209.219223,55.040508 209.843018,60.589916 
z"/>
<path fill="#636363" opacity="1.000000" stroke="none" 
	d="
M91.632401,45.314636 
	C94.222672,44.475563 97.254463,44.281185 97.944496,40.210243 
	C100.744354,41.023365 99.861961,43.019726 98.696083,44.543175 
	C96.887833,46.906006 94.466080,47.424740 91.632401,45.314636 
z"/>
<path fill="#6B6B6B" opacity="1.000000" stroke="none" 
	d="
M179.499908,86.785416 
	C179.021667,83.088547 178.953735,79.599472 179.045700,76.114609 
	C179.079269,74.843163 179.212143,72.898499 181.039459,75.694557 
	C180.397125,79.682335 182.325272,83.562080 179.499908,86.785416 
z"/>
<path fill="#4F4F4F" opacity="1.000000" stroke="none" 
	d="
M173.077179,90.330551 
	C175.358658,89.945633 177.558975,89.526215 178.921875,86.800201 
	C182.283463,86.761612 180.535339,88.678024 179.776993,89.628479 
	C178.006592,91.847359 175.621124,91.862511 173.077179,90.330551 
z"/>
<path fill="#8F8F8F" opacity="1.000000" stroke="none" 
	d="
M73.625916,56.353733 
	C76.599869,56.043636 79.522049,56.705418 81.826675,59.507935 
	C78.848419,59.684578 76.438499,57.913425 73.625916,56.353733 
z"/>
<path fill="#595959" opacity="1.000000" stroke="none" 
	d="
M152.438416,49.789711 
	C151.955460,46.913410 152.489410,44.214275 151.162079,41.266624 
	C154.924606,43.235676 154.610962,46.477543 152.438416,49.789711 
z"/>
<path fill="#595959" opacity="1.000000" stroke="none" 
	d="
M192.264893,76.433685 
	C192.722656,76.618912 192.791565,76.869873 192.919296,77.506729 
	C191.216888,78.559975 189.412140,78.224030 187.278870,78.080307 
	C188.026093,75.726532 190.299774,77.233421 192.264893,76.433685 
z"/>
<path fill="#8F8F8F" opacity="1.000000" stroke="none" 
	d="
M82.714729,60.349968 
	C84.190926,59.799736 85.748360,59.909370 86.893639,61.892612 
	C85.633942,61.740269 84.274292,61.202621 82.714729,60.349968 
z"/>
<path fill="#A5A5A5" opacity="1.000000" stroke="none" 
	d="
M65.059311,52.329216 
	C66.058044,52.031105 67.332321,51.676903 67.912186,53.546974 
	C66.757454,54.070095 65.985168,53.329250 65.059311,52.329216 
z"/>
<path fill="#777777" opacity="1.000000" stroke="none" 
	d="
M182.940552,76.314659 
	C184.039352,76.073357 185.488861,75.443237 186.007874,77.565872 
	C184.978638,77.504417 184.006287,77.064850 182.940552,76.314659 
z"/>
<path fill="#A5A5A5" opacity="1.000000" stroke="none" 
	d="
M62.841965,73.315491 
	C63.642879,73.031540 64.567528,73.082474 64.929367,74.595177 
	C64.316422,74.483162 63.661888,74.028191 62.841965,73.315491 
z"/>
<path fill="#8F8F8F" opacity="1.000000" stroke="none" 
	d="
M72.153595,55.251419 
	C72.305237,55.228878 72.564392,55.454277 72.986740,55.887264 
	C72.853661,55.896358 72.557381,55.697857 72.153595,55.251419 
z"/>
<path fill="#A5A5A5" opacity="1.000000" stroke="none" 
	d="
M64.022285,51.253441 
	C64.211960,51.200863 64.496834,51.397182 64.884338,51.836662 
	C64.697144,51.887325 64.407310,51.694828 64.022285,51.253441 
z"/>
<path fill="#FDFDFD" opacity="1.000000" stroke="none" 
	d="
M191.078552,42.063393 
	C198.291809,45.447239 199.938644,51.095398 198.977020,58.107174 
	C198.738205,59.848568 198.248215,61.166882 197.028687,62.430943 
	C190.760101,68.928452 187.518631,68.740852 181.229614,61.193687 
	C179.397949,58.359802 180.209930,55.458351 180.032318,52.255112 
	C181.953827,46.783249 185.073059,43.030956 191.078552,42.063393 
z"/>
<path fill="#4F4F4F" opacity="1.000000" stroke="none" 
	d="
M191.536469,41.892616 
	C186.248535,42.644035 184.466705,47.435963 181.052399,50.672176 
	C180.591293,51.339367 180.192734,51.471157 179.490967,51.162079 
	C180.110962,45.893822 184.439438,43.698547 187.757828,40.764233 
	C188.788071,39.853230 190.582321,40.121544 191.536469,41.892616 
z"/>
<path fill="#6B6B6B" opacity="1.000000" stroke="none" 
	d="
M179.163910,51.355011 
	C179.624512,50.940914 179.990494,50.964714 180.631912,50.983883 
	C180.941360,54.015118 180.975372,57.050980 180.982849,60.540596 
	C177.318680,58.544212 179.642075,54.871586 179.163910,51.355011 
z"/>
<path fill="#FDFDFD" opacity="1.000000" stroke="none" 
	d="
M141.708069,57.940704 
	C142.867416,61.345482 139.790710,65.295753 135.479965,65.834618 
	C132.442184,66.214363 129.212631,66.702209 125.889870,64.975464 
	C124.876862,62.236359 124.339630,59.853077 127.082672,57.743870 
	C132.132156,57.513748 136.757599,57.426235 141.708069,57.940704 
z"/>
<path fill="#424242" opacity="1.000000" stroke="none" 
	d="
M141.851593,57.865696 
	C137.463043,58.272320 132.892029,58.273853 127.883781,58.245491 
	C126.908844,58.541992 126.457474,58.449390 126.072952,57.537102 
	C131.266098,56.879833 136.484360,56.361240 141.851593,57.865696 
z"/>
<path fill="#4F4F4F" opacity="1.000000" stroke="none" 
	d="
M125.684937,57.236069 
	C126.334244,57.414772 126.615242,57.691986 127.171394,58.092392 
	C125.404877,59.622646 125.388817,61.718933 125.554840,64.256828 
	C122.290070,62.327648 123.707245,59.834656 125.684937,57.236069 
z"/>
</svg>